<svg xmlns="http://www.w3.org/2000/svg" viewBox="0 0 172 50" width="172" height="50"><title>clutch-svg-svg</title><style>		.s0 { fill: #ffffff } 	</style><path class="s0" d="m128.3 48.7c-9.4 0-16.4-5.8-17.6-13.6-1.5-8.6 2.9-16.3 10.7-18.8 6.3-2 12-0.6 17.1 3.6 0.9 0.7 1.2 1.3 0.1 2.2-1.1 0.9-2.2 2-3.2 3.2-0.6 0.8-1.1 0.8-1.8 0-2.8-2.8-6.2-3.1-9.7-2-3.8 1-6 4.3-6.1 8.5-0.1 4.1 2.1 7.7 5.7 9.1 3.7 1.5 7.8 0.6 10.3-2.3 0.6-0.7 0.9-0.9 1.6-0.1q1.6 2 3.6 3.6c1.1 0.9 0.7 1.4-0.1 2.1-3.4 3-7.3 4.4-10.6 4.5z"></path><path class="s0" d="m7.2 41.6c-0.6-0.6-1.2-1-1.4-1.8-0.1-0.7-0.7-1-1-1.4-6.2-8.8-4.4-23.4 3.6-30.7 8.2-7.5 21-7.8 29.3-0.7 1 0.8 2.5 1.6 2.7 2.7 0.2 1.1-1.6 1.8-2.4 2.7-0.7 0.9-1.4 2-2.3 2.2-1 0.2-1.6-1.2-2.4-1.8-6.5-4.9-14.9-4.8-20.2 0.4-4.6 4.6-5.4 10.2-4.3 16.3q0.2 0.7 0.3 1.4c-0.5 2.7-0.2 5.4-0.2 8.1-0.1 0.6 0 1.2-0.1 1.8 0 0.5 0 1.1-0.4 1.3-0.6 0.3-0.8-0.3-1.2-0.5z"></path><path class="s0" d="m103.3 36.4c0 3.6 0 7.3 0.1 10.9 0 1.3-0.4 1.6-1.6 1.5q-2.4-0.1-4.8 0c-1.2 0.1-1.5-0.3-1.5-1.5q0-10.9 0-21.9c0.1-1.3-0.3-1.7-1.5-1.6-1.1 0.1-2.2 0-3.2 0.1-0.9 0-1.1-0.3-1.1-1.1q0.1-2.9 0-5.7c0-0.8 0.3-1.1 1.1-1.1 1.1 0.1 2.2 0 3.4 0.1 1.2 0.1 1.4-0.4 1.4-1.5-0.1-2.9 0-5.9-0.1-8.8 0-1 0.2-1.5 1.3-1.4q2.7 0.1 5.3 0c1 0 1.3 0.2 1.3 1.2-0.1 3.1 0 6.2-0.1 9.2 0 1 0.3 1.3 1.3 1.3 1.1-0.1 2.3 0 3.4-0.1 0.7 0 1.1 0.1 1.1 1q-0.1 3 0 5.9c0 0.7-0.3 1-1 0.9-1.1 0-2.3 0.1-3.5 0-1-0.1-1.3 0.3-1.3 1.3 0.1 3.8 0.1 7.5 0.1 11.3z"></path><path class="s0" d="m154.2 23.8c-2.4 2-2.7 4.7-3 7.4-0.2 0.2-0.5 0-0.5 0.6 0.2 4.3 0.1 8.6 0 12.9 0 0.5 0 0.9 0.5 1.1 0.2 3 0.2 3-2.9 3-1.6 0-3.7 0.7-4.6-0.3-0.8-0.9-0.2-3-0.2-4.5q0-21-0.1-41.9c0-1.3 0.2-1.8 1.7-1.7 1.6 0.1 3.3 0.1 4.9 0 1.1 0 1.3 0.3 1.3 1.3-0.1 5.3 0 10.7 0 16.2 1.7-0.9 3.3-2.3 5.4-2.1 0.5-0.2 1.1-0.4 1.5 0.2 0.2 0.4 0.1 0.8-0.2 1.1-0.7 0.5-1.3 0.3-2-0.1-0.3 2.3 0.6 5-1.9 6.8z"></path><path class="s0" d="m45.4 24.6c0-7.5 0-15.1-0.1-22.7 0-1.2 0.3-1.6 1.6-1.5q2.4 0.1 4.8 0c1.2-0.1 1.5 0.2 1.5 1.5-0.1 5.3 0 10.6 0 15.9 0 9.9 0 19.7 0 29.5 0 1.2-0.3 1.6-1.5 1.5-1.5-0.1-3.1-0.1-4.7 0-1.3 0.1-1.7-0.2-1.7-1.6 0.1-7.5 0.1-15.1 0.1-22.6z"></path><path class="s0" d="m69 40.3c4.5 2 9.1 0.5 10.7-3.5q0.6-1.4 0.6-2.9c0-5.5 0-10.9-0.1-16.3 0-1.3 0.4-1.6 1.6-1.5q2.4 0.1 4.8 0c1.2-0.1 1.5 0.2 1.5 1.4-0.1 9.1-0.1 18.2-0.1 27.3 0 1.1 0 2.1 0 3.1 0.1 0.7-0.2 0.9-0.9 0.9-2 0-4 0-5.9 0-1.9 0-0.5-1.5-1.1-2.2-4.5 2.7-9.2 3-14.1 0.8 0.1-2.2-0.1-4.4 0-6.5 0-1.3 0.3-2.4 1.5-3q0.4 0.9 0.9 1.7c-0.2 0.2-0.3 0.5-0.3 0.7 0.1 0.4 0.1 0.8 0.4 0.8 0.5 0 0.1-0.6 0.5-0.8z"></path><path class="s0" d="m154.2 23.8c0-0.3-0.1-0.8 0.1-0.9 1.7-0.8 1-2.4 1.2-3.8q0.1-1.2 0.2-2.5c0.7 0.1 1.4 0.7 2.1 0.3 0.3-0.1 0.3-0.5 0.2-0.7-0.3-0.6-0.9-0.3-1.3-0.5 6.5-1.6 13.1 3.1 13.9 10.1 0.5 4.5 0.2 9 0.3 13.5 0 2.6-0.1 5.3 0 7.9 0.1 1.4-0.4 1.7-1.7 1.6q-2.4-0.1-4.7 0c-1.2 0.1-1.6-0.2-1.5-1.5q0-8.7 0-17.4 0-1.5-0.1-3c-0.4-3.2-2.4-4.7-5.6-4.2-1.1 0.2-2.1 0.7-3.1 1.1z"></path><path class="s0" d="m7.2 41.6c0.3 0.1 0.7 0.2 1.2 0.4 0-3-0.1-5.9 0-8.8 0.1-0.8-0.5-1.9 0.7-2.3 1.7 4.3 4.4 7.7 8.9 9.4 4.8 1.9 12.9 1.2 17.7-4.9q2.2 2.3 4.4 4.7c0.4 0.3 0.6 0.5 0.2 1.1-7.8 9.8-25 10-33.1 0.4z"></path><path class="s0" d="m67.5 37.9c-1.8 2.7-1.1 5.6-0.8 8.5 0.1 0.9-0.1 0.9-0.7 1-3.8-1.4-5.2-4.7-6.3-8.2-0.5-1.6-0.6-3.3-0.6-4.9 0-5.6 0-11.2-0.1-16.8 0-1.2 0.4-1.5 1.5-1.5q2.5 0.2 5 0c1.2 0 1.5 0.4 1.5 1.5-0.1 5.1 0 10.3-0.1 15.4 0 1.7 0.2 3.3 0.6 5z"></path><path class="s0" d="m123.1 36.1c-0.8-0.6-1.4-1.2-1.5-2.3-0.5-2.7 0.2-4.9 2.7-6.4 1.5-0.9 4-0.8 5.5 0.4 1.9 1.5 2.7 3.8 2 5.7-1.3 3.5-4.4 4.8-7.8 3-0.3-0.1-0.6-0.3-0.9-0.4z"></path><path class="s0" d="m123.1 36.1c1-0.2 1.7 0.6 2.6 0.8 2.1 0.5 3.8-0.2 5.1-1.8 1-1.4 1.7-3.1 0.7-4.8-1-1.7-2.2-3.3-4.6-3.2-3.5 0-5.7 2.5-5.1 6.1 0 0.3 0 0.5-0.2 0.7-1-2.9 0.1-5.5 2.8-6.9 2.5-1.2 5.5-0.3 7.1 2.2 1.4 2.2 0.9 5.3-1.1 7.1-2.2 1.9-5.1 1.8-7.3-0.2z"></path><path class="s0" d="m151.2 45.8c-0.6 0.1-0.9 0-0.9-0.8q0-6.7 0-13.4c0-1.3 0.6-0.2 0.9-0.4q0 7.3 0 14.6z"></path><path class="s0" d="m69 40.3c-0.2 0.5 1 1 0.1 1.4-0.4 0.2-1.3 0-1.3-0.7 0-0.4-0.8-1.4 0.6-1.4q0.3 0.4 0.6 0.7z"></path><path class="s0" d="m4.8 38.3c0.4 0.5 1.5 0.5 1 1.5-0.5-0.4-0.9-0.9-1-1.5z"></path><path class="s0" d="m6.8 39.3c0.2 0.1 0.4 0.1 0.4 0.2 0.1 0.3 0 0.4-0.3 0.4-0.1 0-0.2-0.1-0.3-0.2 0-0.1 0.2-0.2 0.3-0.4z"></path></svg>