<svg xmlns="http://www.w3.org/2000/svg" viewBox="0 0 398 57" width="398" height="57"><title>crunchbase-svg</title><style>		.s0 { fill: #ffffff } 	</style><path class="s0" d="m218.3 30.4c-1.6-3.6-4.4-4.9-8.4-4.6-4.2 0.3-5.3 3.3-6 6.6-0.9 3.4-0.3 6.8-0.4 10.1 0 3.5-0.4 7.1 0.3 10.6-2.3 1.5-4.8 0.4-7.2 0.6-0.5-0.7-0.3-1.5-0.3-2.2q0-24.4 0-48.9c0-0.7-0.2-1.5 0.3-2.2h5.9c0.7 5.5 0.1 11 0.4 16.4 0 1-0.5 2.1 0.3 3.1 1.7 0.4 2.9-1.3 4.6-1.2 0.3 0.2 0.6 0.3 0.9 0.3 0.2 0 0.5 0.1 0.7-0.1q-0.4 0-0.5-0.4 2.8-1.1 5.6 0.1c-0.1 0.3-0.5 0.2-0.7 0.5 0.6-0.2 1.3 0 1.9-0.3 5 1.1 8.1 4.2 9.7 9-0.5 1.5 0.4 3 0.2 4.6 0 5.8-0.1 11.6 0 17.4 0 2.6-1.1 3.3-3.6 3.3-2.5 0.1-2.7-1.2-2.7-3.2-0.1-5.8 0.4-11.6-0.3-17.4-0.1-0.8-0.1-1.5-0.7-2.2z"></path><path class="s0" d="m237.4 0.5q0 26 0 52c1.8 0.8 3.9-0.2 5.7 0.5q0.2 0.1 0.3 0.2c-1.9 1.1-4 0.4-6 0.4-2 0-1.3-1.7-1.3-2.7-0.1-16.8 0-33.6 0-50.4h1.3z"></path><path class="s0" d="m196.6 0.5q0 26.6 0 53.2c-1.4-0.9-0.6-2.2-0.6-3.2-0.1-16.7-0.1-33.4-0.1-50h0.7z"></path><path class="s0" d="m203.2 19.9c-1.5-0.2-0.6-1.3-0.6-1.9-0.1-5.8-0.1-11.7-0.1-17.5h0.7q0 9.7 0 19.4z"></path><path class="s0" d="m243.3 0.5v19.3q-0.3 0-0.6 0v-19.3c0 0 0.6 0 0.6 0z"></path><path class="s0" d="m172.7 47.1c2.6-1.1 5.6-1.6 7.1-4.4 2-1.9 4.4-1.3 6.7-1.1 1.4 0.1 1.4 1.3 1.4 2.4-7.3 16.4-30.8 14.1-35.3-3.3 0.3-2.6 0.4-5.1 0-7.7 2-8.3 7.8-13.5 16.2-14.6 8.2-1 14.8 2.9 19.2 11.3-0.3 1.9-1.6 2-3.1 1.9-1.6 0-3.2 0.4-4.7-0.6-1.3-2.9-4.3-3.7-6.8-5.1-1.6-0.7-3.3-0.7-5 0-5.6 2.1-8.3 5.6-8.2 10.5 0.1 4.2 1.6 8.5 8.3 10.7 2.1 0.7 2.1 0.7 4.2 0z"></path><path class="s0" d="m17 25.9c-8.9 4.2-10.7 13.6-3.7 19.3 1.3 1.1 3.1 1 4.4 2 1.4 0.7 2.9 0.7 4.4-0.1 2.6-1 4.9-2.3 6.8-4.4 2-1.9 4.4-1.3 6.7-1.1 1.7 0.1 1.5 1.4 1.1 2.6-2.3 7-11.2 12-19.5 10.8-8.1-1.3-15-8.1-15.5-15.5 0.1-2 0.1-3.9 0-5.9 0.6-11 16.2-19.2 25.8-13.3 4.4 2.7 8 5.3 9.7 10.1-0.6 1.6-2.1 1.2-3.3 1.3-1.3 0-2.6-0.1-3.9 0.2-2.1-2.5-4.1-5-7.4-5.9-2.4-0.7-3-0.7-5.6 0z"></path><path class="s0" d="m335.6 39.3c-4-1-8-1.7-10.4-5.5-1.4-2.3-2-4.5-1-6.9 0.3 0.1 0.4 0.4 0.4 0.7 0.1-0.6 0.1-1.2-0.2-1.8 1.9-4.6 5.6-6.9 10.5-7.7q2.9 0.5 5.8 0c7 1.4 10.1 4.3 11.1 10.3-3.1 1.1-6 1.4-8.5-1.3q-2-0.9-4-1.8c-1.2-0.8-2.4-0.7-3.6 0q-1.4 0.7-2.9 1.4c-1.5 0.7-1.4 2-1.4 3.3 0.1 4 10.7 3.7 13.6 5.2 9.8 3.6 8.4 13.9 1.1 18.1-5.2 3.3-15.1 2.2-19.5-2.1-1.9-1.9-3.8-4.7-2.5-6.9 1.1-1.8 4.4-1 6.8-0.3-1.7 0.6-3.5 0.3-5.2 0.3 1.7-0.2 3.5 0.4 5.2-0.3 0.9 2.5 3.1 3.5 5.4 4.5 1 0.7 2.1 0.5 3.2 0.1 1.1 0.1 1.5-1 2.4-1.4 1.5-0.7 2.4-1.8 2.3-3.6-0.2-2.7-4.7-3.3-6.8-4.1 0.3-0.4 0.6-0.4 1-0.1-0.2-0.3-0.6-0.3-0.9-0.3-0.6 0-1.3-0.1-1.9 0.2z"></path><path class="s0" d="m75.4 44.1c-1.3-3.4-0.5-7-0.6-10.6-0.2-3.9 0.1-7.8-0.1-11.7-0.1-2.7 1.1-2.6 3.3-2.4 5.3 0 4.5-0.7 4.6 4.4 0 5.5-0.2 11 0.1 16.5 0.3 6.3 3.2 6.8 8.7 7.4 2.9 0.3 5.7-3.4 5.8-7.6 0.1-5.8 0.2-11.7 0-17.5-0.1-2.8 0.9-3.8 3.5-3.2 1.4 0.3 3.5-1.4 4.3 1.2-0.6 10.5 0 21.1-0.3 31.6-2.1 1.8-4.6 0.5-6.9 0.9-2-0.6-3.3 1.5-5.2 1.2-2.4-0.1-4.8-0.2-7.2 0-5.1-1.1-8.4-4-9.8-9 0.3-0.6 0.1-1.1 0.3-1.8-0.3 0.1-0.2 0.5-0.5 0.6z"></path><path class="s0" d="m114.9 20c0.7-1.2 1.8-0.6 2.7-0.6 3.3 0 6.7 0.4 9.9-1.2 1.5 0.3 3 0.3 4.5-0.1 6.6 1.4 11.2 4.7 12.4 11.7-0.2 7.7-0.4 15.5 0.1 23.3-2.6 1.2-5.1 1.2-7.7 0 0.4-5.6 0.3-11.2 0-16.9q0-1 0-2c0.2-1.2 0.7-2.5-0.3-3.6-4.3-7.7-14.6-5.9-14.3 2.6q-0.1 8.3-0.1 16.5c0 4.1 0 4.2-4.3 4.1-0.9 0-2.2 0.6-2.9-0.7 0.8-1.2 0.4-2.5 0.4-3.8 0-8.7 0-17.4-0.1-26.2 0-2.1 0.5-3.3 2.3-2.9-0.5 0-1.5 0.3-2.6-0.2z"></path><path class="s0" d="m52.5 36.6c0.7 5.2 0.2 10.4 0.3 15.5 0.2 2.6-2.5 1.4-4 1.7-2.8 0.5-3.7-0.5-3.7-3.4q0.4-13.6 0-27.2c-0.1-3.2 0.8-4.4 4-3.8 1.1 0.2 2.4-0.5 3.4 0.5-1.7 0.7-3.5 0.3-5.3 0.4 1.8-0.2 3.6 0.4 5.3-0.4q2.9-0.9 5.9-1.8 2.2 0.5 4.5 0c6.7 0.9 4.2 2.6 2.3 7.2-0.3 0.7-0.7 1.2-1.7 1.1-9.3-1-9.2 0.4-11 8.7-0.4-0.3-0.4-0.7-0.4-1.1-0.3 0.2 0 0.5 0 0.7-0.1 5.8 0 11.6-0.1 17.4-1.6 1.4-3.5 0.5-5.3 0.6 1.8 0 3.5 0.5 5.3-0.3 0.3-4.2 0-8.5 0.1-12.7 0-1-0.4-2.1 0.4-3.1z"></path><path class="s0" d="m218.3 30.4c1.9 0.3 1.3 1.7 1.3 2.8 0.1 5.5 0.1 11 0 16.5-0.1 2.1 0.6 2.8 2.8 2.8 2.1 0 2.5-0.9 2.5-2.7 0-6.1 0-12.1 0-18.2q0.7-0.3 0.9 0.5c0.1 6.1 0 12.3 0.1 18.4 0.1 2.2-0.4 3.3-2.8 2.9-1.4-0.2-2.8 0.3-4.2-0.3-0.3-6.2-0.3-12.4 0-18.6-0.5-1.1 0.1-2.4-0.5-3.5q0-0.3 0-0.6z"></path><path class="s0" d="m114.9 20h6.3c-0.5 0.4-0.6 0.5-0.8 0.6q-4.8 0.2-4.8 4.9c0 8.1 0 16.2 0 24.3 0 1.1 0.4 2.4-0.7 3.3-0.3-11-0.3-22.1 0-33.2z"></path><path class="s0" d="m394.2 33.4q-0.3 4.7-5.1 4.7c-7.3 0-14.6 0-21.9-0.6q10.7 0 21.5 0c4.4 0 4.4 0 4.8-4.4 0-0.5 0.4-0.9 0.6-1.4q0.1 0.8 0.1 1.7z"></path><path class="s0" d="m316.4 53.1c-1-1-0.6-2.2-0.6-3.4q-0.1-14.5 0-29.1-0.4-0.8 0.5-0.6c0.3 11 0.3 22.1 0.1 33.1z"></path><path class="s0" d="m104.4 52.5q0-14.3 0-28.5c0-1.1-0.4-2.4 0.6-3.4q0 15.9 0 31.8-0.3 0.3-0.6 0.1z"></path><path class="s0" d="m218.9 53.1q6.7 0 6.7-6.6-0.1-7.5-0.1-14.9c-0.3-0.7-0.4-1.4 0.1-2.1 1.3 3.9 0.4 7.7 0.6 11.6 0.1 2.6 0 5.2 0 7.8 0 5.3-1.9 6.4-7.3 4.2z"></path><path class="s0" d="m144.5 53.1c-0.8-0.7-0.6-1.6-0.6-2.4 0.3-7-0.6-14 0.5-20.9 0.5 7.7 0.3 15.5 0.1 23.3z"></path><path class="s0" d="m203.8 53.1c-1.2-1.7-0.5-3.6-0.6-5.4-0.1-5.1 0-10.3 0-15.5 0-0.2 0.1-0.3 0.2-0.5q0.3 0.4 0.5 0.7-0.1 10.4-0.1 20.7z"></path><path class="s0" d="m52.5 36.6c0 4.4 0 8.8-0.1 13.2 0 1.1 0.4 2.3-0.6 3.3-0.4-0.2-0.3-0.6 0-0.6v-20.8h0.5q0.1 1.7 0.2 3.4 0 0.8 0 1.5z"></path><path class="s0" d="m187.9 44c-2.2-3.6-5.3-1.7-8.1-1.4 1.1-1.3 7.8-2.4 8.6-1.3 0.7 0.9-0.1 1.8-0.5 2.7z"></path><path class="s0" d="m36.7 44.2c0-1.6-0.7-2.2-2.4-2.2-1.8 0.1-3.7 0-5.4 0.7 1.2-3.1 3.9-1.4 6-1.6 3.5-0.3 3.5-0.1 1.8 3.1z"></path><path class="s0" d="m180.2 31c2.6-0.5 5.5 1.1 7.8-1.3 1.1 1.8 0.8 2.9-1.6 2.5-2-0.4-4.5 1.2-6.2-1.2z"></path><path class="s0" d="m343.3 27.2c2.6 1.7 5.6 1.2 8.5 1.2 0 0.2 0.1 0.6 0.1 0.6-2.4 1.8-7.3 0.7-8.6-1.8z"></path><path class="s0" d="m136.8 36.2q1.3 8.5 0 16.9 0-8.4 0-16.9z"></path><path class="s0" d="m29.9 31.8c2.2-1.9 5.1 0.2 7.3-1.4 0.3 0.7 1.5 1.9-0.5 1.8-2.3-0.1-4.6 0.5-6.8-0.4z"></path><path class="s0" d="m316.3 20q-0.3 0.3-0.5 0.6c-2.3 0.1-4.7-0.3-6.9 0.6 0.2-0.7-0.1-1.8 0.9-1.7 2.2 0.1 4.5-0.8 6.5 0.5z"></path><path class="s0" d="m104.4 52.5q0.3 0 0.6 0c-2.3 2-4.8 0.8-7.2 0.6 2.1-1.3 4.4-0.3 6.6-0.6z"></path><path class="s0" d="m280.2 33c1.1 2.5 1 5.1 0.1 7.7-0.7-2.5-1.1-5.1-0.1-7.7z"></path><path class="s0" d="m1.7 33.6c1.1 2 1.1 3.9 0 5.9-0.6-2-0.7-3.9 0-5.9z"></path><path class="s0" d="m85.4 54.3c2.4-0.8 4.8-0.9 7.1 0-2.4 0.7-4.8 0.5-7.1 0z"></path><path class="s0" d="m152.6 33c0.9 2.6 0.8 5.1 0 7.7-0.4-2.6-0.6-5.1 0-7.7z"></path><path class="s0" d="m17 25.9c1.8-1.6 3.8-0.6 5.8-0.5 0 0.2 0 0.4-0.2 0.5q-2.8 0-5.6 0z"></path><path class="s0" d="m393.4 43.5c-2.1 1.1-4.3 0.3-6.5 0.5 2.1-1.4 4.4-0.4 6.5-0.5z"></path><path class="s0" d="m168.4 25.9c1.6-1.6 3.4-0.5 5.1-0.5 0.1 0.1 0.1 0.3-0.1 0.5q-2.5 0-5 0z"></path><path class="s0" d="m340.7 18.1q-2.9 1.3-5.8 0 2.9 0 5.8 0z"></path><path class="s0" d="m172.7 47.1c-1.3 1.7-2.9 0.6-4.4 0.6 0 0 0-0.2 0-0.3 0-0.1 0.1-0.2 0.2-0.3q2.1 0 4.2 0z"></path><path class="s0" d="m257.1 18.2c-1.7 0.7-3.4 0.8-5.2-0.1 1.8-0.3 3.5-0.2 5.2 0.1z"></path><path class="s0" d="m378.9 18.1q-2.6 1.3-5.1 0 2.5 0 5.1 0z"></path><path class="s0" d="m335.7 25.3c1.1-1.5 2.5-0.6 3.8-0.6 0 0 0 0.2 0 0.3 0 0.1-0.1 0.2-0.2 0.3q-1.8 0-3.6 0z"></path><path class="s0" d="m22.1 47.1c-1.4 1.5-3 0.7-4.6 0.6-0.1-0.2 0-0.4 0.1-0.5q2.3-0.1 4.5-0.1z"></path><path class="s0" d="m62.9 18.1q-2.3 1.2-4.5 0 2.2 0 4.5 0z"></path><path class="s0" d="m132 18.1c-1.5 0.8-3 0.8-4.5 0z"></path><path class="s0" d="m272.9 38.8q-1.3-2.3 0-4.5-0.1 2.2 0 4.5z"></path><path class="s0" d="m136.6 30.5c1.4 1.2 0.8 2.5 0.2 3.7q-0.1-1.8-0.2-3.7z"></path><path class="s0" d="m295.2 18.6c0.7 0.1 1.5 0.2 2.8 0.3-1.8 0.5-2.9 0.7-3.9-0.2q0.5 0 1.1-0.1z"></path><path class="s0" d="m339.5 48.6c-1 0.9-2.2 0.7-3.3 0.4-0.2-0.2-0.1-0.4 0.1-0.5q1.6 0 3.2 0.1z"></path><path class="s0" d="m225.7 29.5q-0.1 1.1-0.2 2.1-0.3 0.1-0.6 0.1c0.2-1.3-0.4-2.7 0.5-3.9q0.1 0.9 0.3 1.7z"></path><path class="s0" d="m256.7 54.5c-0.5-0.1-1-0.2-2-0.4 1.7-0.4 2.7-0.6 3.8 0.2q-0.9 0.1-1.8 0.2z"></path><path class="s0" d="m324.4 25.8c0.8 0.8 0.7 1.7 0.4 2.6-0.7-0.4-0.3-1.1-0.6-1.5q0.1-0.6 0.2-1.1z"></path><path class="s0" d="m335.6 39.3c0.6-0.7 1.5-0.5 2.3-0.4 0.1 0 0.1 0.2 0.3 0.3q-0.4 0.2-0.8 0.3-0.9-0.1-1.8-0.2z"></path><path class="s0" d="m218.4 31c1 1.1 0.5 2.3 0.5 3.5-0.5-1.1-0.6-2.3-0.5-3.5z"></path><path class="s0" d="m208.9 18.5c0.5 0.1 1 0.2 2 0.4-1.4 0.5-2.3 0.7-3.1-0.2q0.6-0.1 1.1-0.2z"></path><path class="s0" d="m215.7 18.8c-0.9 0.7-1.8 0.7-3.1 0.1 0.9-0.1 1.4-0.2 1.9-0.3q0.6 0.1 1.2 0.2z"></path><path class="s0" d="m249.9 54.3c0.6-0.7 1.3-0.5 2.1-0.5 0.2 0 0.7-0.1 0.5 0.3-0.1 0.2-0.5 0.3-0.8 0.4q-0.9-0.1-1.8-0.2z"></path><path class="s0" d="m75.4 44.1c0.1-0.5 0.1-1 0.3-1.9 0.6 1.4 0.6 2.2-0.1 3.1q-0.1-0.6-0.2-1.2z"></path><path fill-rule="evenodd" class="s0" d="m272.9 34.3c-0.4 1.5-0.4 3 0 4.5-1.4 8.2-6.6 13.8-14.4 15.5-0.9-0.3-1.7-0.3-2.4-0.2 0.2 0 0.4 0.1 0.6 0.4-1.6 0.6-3.3 0.7-5 0 0.3-0.4 0.5-0.5 0.9-0.1-0.1-0.4-0.5-0.3-0.8-0.3-0.6 0-1.3-0.2-1.8 0.2-1.8-0.2-3.4-0.8-4.8-1.8-1.1-0.7-1.3 0.2-1.8 0.7q-0.3-0.1-0.5-0.1c-2-0.5-4.4 1-6-1.2-0.3-16.4-0.1-32.9-0.1-49.3 0-0.8 0.1-1.5 0.6-2.2h5.3q0.3 2.5 0.3 5c0.1-1.6 0.2-3.3 0.3-4.9h0.7c-0.1 6.1-0.1 12.2-0.2 18.3 0 1.4 0.6 2.4 1.8 1.5 1.9-1.5 4.3-1.3 6.3-2.2 1.8 0.4 3.5 0.3 5.2 0.1 7.9 0.7 15.5 8.7 15.8 16.1zm-29.9-23.5c0 3-0.1 5.8 0 8.4 0.2-2.6 0.1-5.4 0-8.4zm21.1 31.4c2.3-3.8 1.2-9.6-1.8-12.7-2.8-2.9-8.6-3.6-12.8-1.7-4.1 1.8-5.2 5.4-6 9.2v0.3c1 4.8 2.6 9.2 8.4 10.1 1.5 0.8 3.1 0.4 4.6 0.5 3-1.4 5.9-3 7.6-5.7z"></path><path class="s0" d="m251.9 47.4c1.5 0.4 3.2-0.4 4.6 0.5-1.6 0.9-3.2 1.4-4.6-0.5z"></path><path class="s0" d="m243.1 53q-2.8 0-5.6 0c-0.3-0.2-0.2-0.3-0.1-0.5 1.9 0.2 3.9-0.7 5.7 0.5z"></path><path class="s0" d="m243.4 37v0.3c-0.1 0.5-0.2 1-0.3 1.6-0.7-0.8-0.7-1.8-0.3-2.3 0.6-0.9 0.4 0.3 0.6 0.4z"></path><path fill-rule="evenodd" class="s0" d="m316.1 49.6c0 1.2-0.3 2.4 0.3 3.5-2.6 0.7-5.3 2.1-7.5-0.8-0.5-0.6-0.8-0.1-1.3 0.2-5.8 3.6-12 3.6-17.7 0.5-4.8-2.5-8.8-6.4-9.6-12.2 0.1-2.6-0.1-5.2-0.1-7.8 0.9-7 6.4-12.6 13.9-14.2 0.6 0.3 1.2 0.2 1.8 0.2q-0.4-0.1-0.7-0.4c5-1.3 9.4 0.1 13.7 2.6 2.2-1.8 4.6-1.6 7-0.6 0.4 9.7 0.1 19.3 0.2 29zm-7-15.2c-1.2-4.4-4.4-6.9-8.5-8.4-1.5-0.8-2.9-0.7-4.4-0.1-0.2 0.1-0.4 0.3-0.6 0.3-5.3 1.8-8.4 5.8-8.1 10.7 0.3 5.7 3.5 8.8 8.8 10.1 4.7 1.1 9.8-1.7 12.2-6.3 0.4-0.8 0.8-1.6 0.7-2.5q0-0.7 0-1.4c0.3-0.8 0.6-1.6-0.1-2.4z"></path><path class="s0" d="m300.6 26q-2.2-0.1-4.4-0.1c-0.3-0.1-0.8-0.6-0.7-0.6 1.7 0.1 3.6-0.9 5.1 0.7z"></path><path class="s0" d="m308.5 40.7q0.3-1.3 0.7-2.5c0.9 1.1 0.3 1.8-0.7 2.5z"></path><path class="s0" d="m309.3 36.8q-0.1-1.2-0.2-2.4c1.3 0.7 0.8 1.6 0.1 2.4z"></path><path fill-rule="evenodd" class="s0" d="m368.7 38.7c-2.6-0.1-3 0.7-2.1 2.9 1.2 3.2 3.5 4.9 6.5 6 4.4 1.6 11.1 0.5 13.8-3.6 2.1-0.8 4.4 0.1 6.5-0.6 0.5 2.2-0.7 4.6-3.5 6.9-5.9 4.9-12.7 6-19.9 3.6-17.3-6.6-15.6-33.1 3.8-35.8q2.5 0.5 5.1 0c9.5 2.1 14 6.2 15.2 13.6-0.2 0.3-0.3 0.5-0.3 0.9q-0.3 5.2-5.7 5.2h-2.9q2.6 0 5.2 0.1c2.7 0.1 3.9-0.6 3.4-3.3-0.1-0.5 0.1-0.9 0.4-1.2q0.3 0.8 0.6 1.5-0.1 1.9-0.2 3.8c-8.7 0-17.3 0.1-25.9 0zm-0.8-6.4q8.5-0.1 17 0c1.9 0.1 1.9-0.7 1.3-2.1-3.1-7.1-16.7-8.1-19.7 0.2-0.5 1.3-0.3 2 1.4 1.9z"></path><path class="s0" d="m159.3 37.6c-0.3-1-0.4-1.8 0.1-2.8 0.4 1 0.5 1.9-0.1 2.8z"></path><path class="s0" d="m330.9 44c-1.8 1.4-3.9 0.2-5.8 0q2.9 0 5.8 0z"></path><path class="s0" d="m75.5 37.4q0-7.7 0-15.5c0-2.8 2.1-1.8 3.5-1.9 1.6-0.2 3.1-0.2 3.1 2.1-0.1 6.2-0.1 12.3-0.7 18.5 0-5.8-0.1-11.6 0-17.4 0-1.9-0.6-2.7-2.6-2.6-1.9 0-2.8 0.4-2.7 2.5 0.1 4.7 0 9.5 0 14.2q-0.3 0.1-0.6 0.1z"></path><path class="s0" d="m121.3 35.7v16.7h-0.3v-16.7q0.2 0 0.3 0z"></path><path class="s0" d="m51.7 52.5q0 0.3 0 0.6c-1.9-0.3-4.1 0.8-5.8-1 1.9 0.6 3.9 0.3 5.8 0.4z"></path><path class="s0" d="m52.5 19.9c-1.9 1.4-3.9 0.4-5.9 0q2.9 0 5.9 0 0 0 0 0z"></path></svg>