<svg xmlns="http://www.w3.org/2000/svg" viewBox="0 0 384 87" width="384" height="87"><title>designrush-svg</title><style>		.s0 { fill: #ffffff } 	</style><path class="s0" d="m384.1 68.9c-1.9 0-3.8-0.1-5.8 0-1.3 0.1-1.6-0.4-1.6-1.6 0.1-3.3 0-6.6 0.1-9.9 0-1.1-0.4-1.4-1.5-1.4q-5.2 0.1-10.4 0c-1.2 0-1.5 0.4-1.4 1.5 0 3.3-0.1 6.6 0 9.8 0 1.4-0.4 1.7-1.7 1.6q-2.1-0.1-4.1 0c-1.4 0.1-1.7-0.3-1.7-1.6 0.1-8.6 0-17.2 0.1-25.8 0-1.6-0.8-3.8 0.3-4.7 1-0.9 3.1-0.3 4.7-0.3 2.4 0 2.4 0 2.4 2.4 0 2.9 0 5.8 0 8.8-0.1 1.1 0.2 1.6 1.5 1.6q5.2-0.1 10.4 0c1.2 0 1.4-0.4 1.4-1.5-0.1-3.2 0-6.3-0.1-9.5 0-1.4 0.3-1.9 1.8-1.9 1.9 0.2 3.7 0 5.6 0v32.5z"></path><path class="s0" d="m25 0.8c0.2 1.1 1.1 1.8 1.6 2.7 1.1 1.8 1.7 3.8 2.1 5.8 0.7 3.7-1 6.5-3.5 8.9-1.4 1.3-2.9 2.6-4.3 4-4.2 4.1-4.7 5.9-3.5 11.5-2.6-1.6-4.7-6.7-4-10.1 0.7-3.5 2.2-6.7 4.1-9.9 0.6 2.1 0.8 4.3 3.6 4 0.6-0.2 1.1-0.4 1.7-0.6 2.2-0.8 3.2-2.7 1.8-4.5-2.5-3.5-2.5-6.9-0.7-10.5q0.3-0.7 0.7-1.4 0.2 0 0.4 0z"></path><path class="s0" d="m240.7 56.1c0-6.4 0-12.2 0-18.1-0.1-1.3 0.2-1.7 1.5-1.6 1.5 0.1 2.9 0.1 4.4 0 1 0 1.4 0.2 1.4 1.3q-0.1 15 0 30.1c0 0.9-0.3 1.3-1.2 1.1q-0.1 0-0.2 0c-5.1 0.1-5 0.1-8.7-4.8-3.6-4.8-7.4-9.5-11-14.2-0.3-0.4-0.6-0.7-1.2-1.4 0 3.3 0 6.2 0 9 0 3.3-0.1 6.7 0 10 0.1 1.2-0.3 1.5-1.4 1.4-1.5 0-3 0-4.5 0-1 0.1-1.3-0.1-1.3-1.1q0-15.1 0-30.1c0-1 0.2-1.3 1.2-1.3 5.8-0.1 5.7-0.1 9.2 4.4 3.8 5 7.6 10 11.8 15.3z"></path><path class="s0" d="m210.4 40.4c-1.3 1.5-2.7 3-3.9 4.6-0.5 0.8-0.9 0.9-1.7 0.3-2.8-2.1-5.9-3.2-9.3-2.5-5.7 1.2-8.8 6.4-7.7 12.3 1.7 8.5 10.7 9.6 16.1 6.5 1-0.5 0.6-1.4 0.6-2.1 0.1-2.8 0-2.7-2.7-2.9-1.5 0-3.7 0.7-4.3-0.3-0.8-1.3-0.2-3.3-0.3-5-0.1-1 0.6-0.9 1.2-0.9 4-0.1 8 0 12 0 1 0 1.3 0.2 1.2 1.4-0.1 3.8 0 7.5 0.1 11.3 0 0.8-0.1 1.4-0.8 2-6.8 5.7-17.6 6.2-24.6 0.9-3.5-2.6-5.6-6.2-6.2-10.7-0.6-5.3 0.6-9.9 4.2-13.9 2.5-2.9 5.8-4.7 9.5-5.3 6.1-1 11.8 0 16.6 4.3z"></path><path class="s0" d="m103.4 52.6c0-4.9 0-9.7 0-14.6 0-1.2 0.1-1.6 1.5-1.6q11.1 0.1 22.1 0c1.2 0 1.6 0.3 1.5 1.5-0.1 1.1-0.1 2.2 0 3.3 0.2 1.3-0.4 1.7-1.6 1.7q-7.5-0.1-14.9-0.2c-0.7 0-1.3 0.1-1.2 1.1 0.1 1.4 0.2 2.9 0.1 4.4-0.1 1 0.3 1.2 1.2 1.2q6.7-0.1 13.3-0.1c0.7 0 1.3 0 1.1 1.1-0.2 1.3-0.1 2.7 0 4 0.1 1.1-0.3 1.3-1.3 1.3-4.4 0-8.8 0-13.2 0-1 0-1.2 0.2-1.1 1.2 0.1 1.4 0.1 2.9 0 4.4-0.1 0.8 0.1 1.1 1 1.1 5-0.1 10.1 0 15.1-0.1 1.6 0 2 0.5 1.8 1.9-0.1 1.1 0 2.2 0 3.3 0.1 1.1-0.3 1.3-1.3 1.3-7.6-0.1-15.1-0.2-22.6-0.1-1.4 0.1-1.4-0.4-1.4-1.4 0-4.9 0-9.8 0-14.7q-0.1 0-0.1 0z"></path><path class="s0" d="m289.7 47.2c0-3.2 0.1-6.4 0-9.6 0-0.9 0.3-1.3 1.3-1.3 1.9 0.1 4.3-0.6 5.5 0.4 1.3 0.9 0.4 3.4 0.4 5.2 0.2 4.6-0.3 9.2 0.2 13.8 0.6 5 3 6.9 7.7 6.6 3.9-0.2 6.3-2.9 6.3-7.4q0.1-8.5 0-16.9c0-1.5 0.3-2 1.8-1.9 1.5 0.1 3 0.1 4.5 0.1 0.6 0 1.1 0 1.1 0.8-0.2 7.1 0.5 14.3-0.4 21.4-0.8 5.6-4.6 9.3-10.2 10.3-3.8 0.7-7.7 0.6-11.3-1-4.8-2.3-6.6-6.3-6.8-11.2-0.2-3.1-0.1-6.2-0.1-9.3z"></path><path class="s0" d="m336.4 36c4.5 0 8.2 1 11.6 3.2 1.1 0.6 1.1 1.2 0.4 2.1q-0.1 0.1-0.1 0.1c-0.9 1.3-1.6 3.1-2.8 3.7-1.4 0.7-2.6-1.1-4-1.6-2-0.7-4-1.2-6.1-0.9-1.4 0.3-2.8 0.8-3 2.4-0.2 1.5 1 2.2 2.2 2.8 2.9 1.2 6 1.7 8.9 2.8 5.6 2 8 7.2 5.7 12.6-1.7 3.8-5.1 5.5-9 5.9-5.6 0.7-10.8-0.7-15.5-4-0.8-0.6-1.2-1.1-0.3-2 1.2-1.1 2-2.9 3.4-3.5 1.5-0.7 2.6 1.4 4.1 1.9 2.7 1.1 5.3 2 8.2 1.2 1.4-0.3 2.5-1.1 2.6-2.6 0.1-1.6-0.9-2.5-2.3-2.9-2.9-1-5.9-1.8-8.9-2.7-1.5-0.5-2.9-1.3-4-2.3-4.6-4.2-2.7-12.8 3.2-15.1 2-0.8 4-1.2 5.7-1.1z"></path><path class="s0" d="m146.2 36c4.1 0.1 7.9 0.9 11.3 3.4 0.7 0.5 1 0.8 0.3 1.6-1 1.3-1.6 3.3-3 4-1.4 0.9-2.7-1.1-4.3-1.6-1.9-0.6-3.9-1-5.9-0.8-1.4 0.2-2.6 0.9-2.9 2.3-0.3 1.5 0.7 2.4 2 2.9q3.3 1.1 6.7 2c1.2 0.3 2.4 0.8 3.5 1.3 3.8 1.8 5.4 4.4 5.3 8.3-0.1 4.6-2.7 7.6-6.3 8.8-6.9 2.4-13.3 0.7-19.2-3.3-0.8-0.5-0.9-1-0.1-1.6q0.1 0 0.1-0.1c1.1-1.2 2-3 3.4-3.6 1.5-0.6 2.5 1.4 4 1.9 2.7 1.1 5.4 2.1 8.4 1.2 1.4-0.4 2.4-1.2 2.5-2.7 0.1-1.4-0.9-2.1-2-2.7-2-0.9-4.2-1.2-6.2-1.9-2.4-0.7-4.7-1.4-6.7-2.9-4.1-3.1-3.9-11.9 1.9-14.8 2.3-1.1 4.7-1.8 7.2-1.7z"></path><path class="s0" d="m50.4 37.1q-5.9 8.3-11.8 16.6c-4.6 6.4-9.2 12.8-13.8 19.3-3.2-4.6-6.4-9-9.5-13.5q-7.8-10.9-15.4-21.8-0.2-0.3-0.4-0.6c0.9-0.5 1.5 0.2 2 0.6 7 4.7 13.8 9.6 20.6 14.5 0.6 0.4 1 0.8 1.3 1.4 0.8-0.2 0.9 0.9 1.7 0.8 5.2-4.3 10.9-8.1 16.5-12 2.3-1.6 4.6-3.3 7-4.9 0.5-0.3 1-1 1.8-0.4z"></path><path class="s0" d="m173.1 52.7c0 5 0 9.9 0.1 14.8 0 1.2-0.4 1.5-1.4 1.4q-2.6-0.1-5.1 0c-0.8 0.1-1.1-0.2-1.1-1q0.1-15.2 0-30.4c0-0.9 0.3-1.1 1.1-1.1 1.6 0.1 3.2 0.1 4.9 0 1.3-0.1 1.5 0.5 1.5 1.6q0 7.4 0 14.7 0 0 0 0z"></path><path class="s0" d="m29.8 30.6c3.5-0.8 5-3.5 6.2-7-0.1 4.2-0.5 7.8-3.4 10.6-2.5 2.3-5.5 2.9-8.7 2.3-4.1-0.8-6.3-5.5-4.6-9.5 0.9-2 2.4-3.5 4-5 2.7-2.6 5.7-5 6.4-9.1 0.1-0.7 0.2-1.5 0.3-2.4 0.6 0.7 1.2 1.2 1.4 2 0.4 1.6 1 3.1 1 4.7-0.1 1.7-0.6 2.9-1.8 4-1.3 1-2.6 1.9-3.9 2.8-1.1 0.7-1.9 1.5-2.5 2.6-1 2.1 0.1 4 2.3 4.1 1.1 0.1 2.2 0 3.3-0.1z"></path><path class="s0" d="m50.4 37.1c-2.1 0.7-3.7 2.3-5.5 3.5-6.4 4.5-12.8 9-19.2 13.5-0.2 0.2-0.4 0.2-0.6 0.3 3-4.4 6.1-8.9 9.2-13.3 1.5-2 3.5-2.9 5.9-3.3q4.5-0.7 9.1-1.3c0.2 0 1.5-1 1.1 0.6z"></path><path class="s0" d="m23.4 53.6q-11-7.8-21.9-15.5c-0.6-0.4-1.1-1-2-1-0.2-0.2-0.6-0.7 0.1-0.6 3.6 0.6 7.3 1 10.9 1.8 2.2 0.4 3.8 2.1 5.1 3.8 2.6 3.5 5.1 7.1 7.6 10.7 0.2 0.2 0.1 0.5 0.2 0.8z"></path><path class="s0" d="m29.8 30.6c-1.3 0.8-2.7 0.7-4 0.5-1.8-0.2-2.9-2.2-2.3-4 0.5-1.4 1.4-2.4 2.5-3.2q1.7-1.1 3.3-2.3c2.7-1.9 3.2-3.4 2.5-6.6-0.2-0.8-0.9-1.6-0.3-2.5 2 4 3 7.9 0 11.8-0.7 1-1.7 1.8-2.5 2.7-1.3 1.6-1.1 2.5 0.8 3.6z"></path><path class="s0" d="m24.8 48.8c-2.2-3.1-4.3-6-6.4-8.8-0.2-0.3-0.5-0.6-0.2-0.9 0.1-0.2 0.5-0.2 0.8-0.1 3.9 1.3 7.8 1.2 11.6-0.1 0.2-0.1 0.3 0 0.8 0.1-2.2 3.3-4.3 6.5-6.6 9.8z"></path><path class="s0" d="m42.8 76.5c0.4 3.3 1.7 5.1 5.5 4.2-3.3 1.4-3.8 3.5-2.4 6.3-1.1-0.7-2.1-1.8-3.2-2-1.2-0.2-2.1 1.4-3.4 1.9 0-1.4 1.2-2.5 0.9-3.7-0.2-1.2-2-1.3-3-2.7 3.8 1.2 5-0.9 5.6-4z"></path><path class="s0" d="m18.9 80.4c4 1.3 5.2-0.7 5.5-3.9 0.8 0.8 0.9 1.7 1 2.4 0.3 1.4 1 2.1 2.4 1.8 0.6-0.1 1.3 0 1.9 0 0 0-2 6-2 6-1.4-0.2-2.1-2-3.4-1.7-1.1 0.2-2.1 1.3-3.5 2.2 0.6-1.6 1.4-2.7 1.3-3.8-0.1-1.3-1.9-1.5-3.2-3z"></path><path class="s0" d="m9.9 87c-2.5-2.6-4.5-2.4-6.7 0 1.2-2.8 1.3-5-2.2-6.3 3.8 1 5-1.1 5.4-4.4 0.4 0.6 0.5 0.7 0.5 0.9 0.4 1.1 0.5 2.7 1.3 3.2 0.8 0.6 2.3 0.3 4.1 0.4-2.9 1.4-4.3 3.1-2.4 6.2z"></path><path class="s0" d="m23.9 2.1c0.5 1.5-0.6 2.6-0.9 4-0.3 1.8 0.3 3.2 1.1 4.7 0.1 0.2 0.3 0.4 0.4 0.5 1.1 1.5 1.6 3.1 0.7 4.7-0.8 1.6-2.4 1.8-4.1 1.7 0.5-0.4 1.1-0.7 1.2-1.4 0.6-0.6 0.5-1.3 0.2-2.1-0.3-0.5-0.3-1.2-0.7-1.7-0.4-0.1-0.3-0.4-0.3-0.7-0.5-1.5-0.8-2.9-0.4-4.5 0.4-2 1.4-3.7 2.7-5.2z"></path><path class="s0" d="m21.1 7.3c-0.1 1.5 0.3 3 0.4 4.5q-1.2-2.1-0.4-4.5z"></path><path class="s0" d="m22.5 14.3c0.4 0.7 0.8 1.4-0.2 2 0.3-0.7 0.2-1.4 0.2-2.1z"></path><path class="s0" d="m21.8 12.5c0.6 0.4 0.7 1.1 0.7 1.8q-0.6-0.8-0.7-1.8z"></path><path fill-rule="evenodd" class="s0" d="m84.5 68.5c-5.7 1.3-11.5 0.5-17.3 0.5-1.3 0-0.7-1-0.7-1.4-0.1-4.9-0.1-9.9-0.1-14.8q0-7.4 0-14.9c0-0.9 0.2-1.5 1.5-1.5 4.1 0.1 8.2-0.1 12.3 0.1 8.6 0.2 15.9 5.3 16.9 14.5 0.9 8.4-4 15.5-12.6 17.5zm-5.4-6.1c6.9-0.1 10.8-4.3 10.1-11.1-0.3-3.4-2.1-6-5.4-7.4-2.8-1.3-5.7-0.8-8.6-1-1.1 0-1.3 0.3-1.3 1.3 0.1 2.8 0 5.6 0 8.4 0 2.9 0.1 5.7 0 8.5 0 1.1 0.3 1.4 1.4 1.3 1.2-0.1 2.5 0 3.8 0z"></path><path fill-rule="evenodd" class="s0" d="m283.5 67.3c0.3 0.5 0.6 0.9 1 1.6-2.8 0-5.3 0-7.7 0-1 0.1-1.4-0.6-1.8-1.2-1.7-2.5-3.5-5.1-5.2-7.7-0.7-1.1-1.5-1.5-2.8-1.5-3.9 0.1-3.9 0-3.9 3.8 0 1.8 0 3.5 0 5.2 0.1 1.1-0.2 1.5-1.3 1.4-1.7 0-3.4 0-5 0-0.9 0.1-1.3-0.2-1.3-1.1q0.1-15.1 0.1-30.1c0-0.6-0.1-1.2 0.8-1.2 6.1 0.2 12.3-0.7 18.3 0.4 8.1 1.4 11.7 10.1 7.1 16.7-1 1.4-2.2 2.5-3.8 3.2-1.4 0.5-1.2 1.1-0.5 2.1 2.1 2.8 4 5.6 6 8.4zm-9.8-16c1.7-0.9 2.5-2.3 2.4-4.4-0.2-1.8-1.2-3.1-3.1-3.7-1.6-0.6-3.3-0.3-5.2-0.4-1.3 0.2-3.3-0.6-4.3 0.4-0.9 0.9-0.3 2.8-0.3 4.3 0.1 1.5-0.6 3.4 0.4 4.3 0.9 0.9 2.8 0.2 4.3 0.2 2 0.1 4 0.2 5.8-0.7z"></path></svg>