<svg xmlns="http://www.w3.org/2000/svg" viewBox="0 0 398 63" width="398" height="63"><title>goodfirms-svg</title><style>		.s0 { fill: #ffffff } 	</style><path class="s0" d="m11.9 36.9q0-9 0-18c0-9 7.8-16.7 16.9-16.7 12 0 24.1 0 36.1-0.1 1.6 0 2.2 0.3 2.1 2q-0.2 5.6 0 11.3c0.1 1.6-0.4 2-2 2-10.9-0.1-21.7 0-32.5 0-4 0-5.2 1.2-5.2 5.1 0 11.1 0 22.2 0 33.3 0.1 1.7-0.4 2.1-2 2.1-3.8-0.2-7.7-0.1-11.5 0-1.5 0-2-0.5-2-2 0.1-6.3 0.1-12.7 0.1-19z"></path><path class="s0" d="m50.5 21.6c5.1 0 10.3 0.1 15.4 0 1.3 0 1.7 0.3 1.7 1.7-0.1 6.4 0.1 12.8 0 19.2-0.2 8.6-7.2 15.3-15.8 15.3-5.9 0-11.9-0.1-17.8 0.1-1.9 0-2.4-0.6-2.3-2.5q0.2-5.5 0-11c-0.1-1.9 0.3-2.6 2.4-2.6 5 0.2 10 0.1 14.9 0.1 1.1 0 2.4 0.1 2.9-1.1 0.4-1.3 0.3-2.7 0-4.1-0.1-0.7-1.1-0.4-1.7-0.4-5.5 0-10.9 0-16.4 0.1-1.6 0-2.2-0.3-2.1-2 0.1-3.2 0-6.4 0-9.5 0-2.5 0.8-3.3 3.3-3.3 5.1 0 10.3 0 15.5 0z"></path><path class="s0" d="m120.1 36.4c0 2.8-0.1 5.6 0 8.4 0 0.9-0.1 1.5-0.9 2.1-8.9 5.9-17.2 7.9-27.9 1.6-13.5-8.1-12.7-25.9-4.1-35.3 9.3-10 23.3-7.3 30.8-1.4 1 0.8 1 1.4 0.1 2.2-0.3 0.2-0.5 0.5-0.7 0.8-1.2 1.8-2.3 2.4-4.5 0.8-5.1-3.6-15.2-4.6-20.7 1.6-4.5 5-6.1 13.5-3.3 19.5 2.9 6.1 9.3 9.7 16.5 9.3 3-0.2 5.4-1.6 7.6-3.4 0.3-0.2 0.6-0.5 0.6-0.8 0-2.9 0.1-5.8 0-8.6 0-1-0.9-0.8-1.5-0.8-3.4 0-6.8 0-10.2 0-1.3 0-1.5-0.3-1.2-1.6 1.3-4.4 1.2-4.4 5.7-4.4 4 0 8.1 0.1 12.1 0 1.2 0 1.6 0.3 1.6 1.6-0.1 2.8 0 5.6 0 8.4z"></path><path class="s0" d="m321.5 21.3c3-3.9 6.6-4.6 10.8-3.6 2 0.4 3.3 1.7 4.3 3.4 0.5 0.9 0.9 1 1.6 0.1 2.7-3.5 6.4-4.3 10.5-3.8 4.6 0.6 7.7 3.8 8.2 8.6 0.7 7.9 0.1 15.7 0.3 23.6 0 0.9-0.3 1.4-1.2 1.4q-0.2 0-0.5 0-4.5 0.7-4.5-3.9c0-6 0.1-12 0-18-0.1-4.2-1.8-5.9-5.5-5.9-3.4 0.1-5.9 2.6-6 6.3 0 5.9 0 11.8 0 17.8 0 1.1 0.6 2.6-0.4 3.2-1.5 1-3.4 1-5.2 1.1-1 0-0.6-1.2-0.6-1.8q0-9.3 0-18.6 0-1.3-0.1-2.6c-0.2-3.2-1.5-5-4-5.3-3.6-0.5-5.8 0.7-6.9 4-0.5 1.6-0.5 3.2-0.5 4.9 0 5.4-0.1 10.9 0 16.4 0 1.5-0.4 2.1-1.9 2.4-4.6 0.8-4.6 0.8-4.6-3.8 0-8.8 0.1-17.6 0-26.4 0-1.7 0.6-2.3 2.2-2.5 3.5-0.6 3.5-0.6 4 2.9z"></path><path class="s0" d="m246.6 29.5c0-6.8 0-13.6-0.1-20.4 0-1.4 0.4-1.8 1.8-1.8q9.7 0.1 19.3 0c1.4 0 1.8 0.5 2.1 1.8 1 4.4 1.1 4.4-3.4 4.4-3.8 0-7.5 0-11.3-0.1-1.3 0-1.7 0.5-1.7 1.8q0.1 4.2 0 8.4c0 1.3 0.4 1.6 1.6 1.6 3.4-0.1 6.7 0 10-0.1 1.3 0 1.9 0.3 1.9 1.8 0 4.3 0.1 4.3-4.3 4.3-2.3 0-4.7 0.1-7.1 0-1.6-0.1-2.1 0.3-2.1 2 0.1 5.2 0 10.4 0.1 15.6 0 1.6-0.6 2.1-2 2.3-4.8 0.5-4.8 0.6-4.8-4.3q0-8.7 0-17.3z"></path><path class="s0" d="m375.1 51.1c-4.8 0.1-8.1-1.4-10.9-4.2-0.8-0.8-1.1-1.5 0-2.2 0.2-0.1 0.3-0.3 0.5-0.4 0.8-0.7 1.5-1.8 2.5-2.1 1.1-0.3 1.5 1.2 2.4 1.7 2.1 1.3 4.3 1.9 6.8 1.1 1.8-0.7 2.7-2 2.8-4 0.1-1.9-0.9-2.9-2.6-3.5-1.9-0.6-3.9-1.2-5.8-1.8-5.6-1.8-8.1-5.8-6.9-11.4 0.9-4.7 5.8-8.1 11-7.7 2.9 0.2 5.5 1.4 7.8 3.2 1.2 0.9 1.6 1.8 0.2 2.9-0.3 0.3-0.6 0.6-0.9 0.9-0.9 1.4-1.8 1.7-3.2 0.4-1.4-1.4-3.4-1.9-5.4-1.6-1.9 0.3-3.3 1.1-3.5 3.2-0.3 2.1 0.5 3.5 2.6 4.1 1.6 0.5 3.2 0.9 4.7 1.4 6 1.8 8.9 5.7 8.1 11-0.8 5.6-5 9-10.2 9z"></path><path class="s0" d="m298.5 23.9c2-5.1 6.1-6.3 10.9-6.4 1.5-0.1 1.8 0.3 1.1 1.6q-0.5 0.9-0.8 1.8c-0.7 2.2-1.6 3.6-4.5 3.5-2.3-0.1-4 1.8-5.1 3.9-1.1 2.1-1.7 4.3-1.7 6.8 0 4.5-0.1 9.1 0 13.6 0.1 1.5-0.4 2.2-1.9 2.4-4.4 0.6-4.4 0.6-4.4-3.7 0-8.7 0.1-17.3 0-26-0.1-2.1 0.6-3 2.6-3.1q1.1-0.1 2.1-0.4c0.9-0.2 1.2 0.2 1.1 1 0 1.6 0 3.1 0 4.7q0.3 0.1 0.6 0.3z"></path><path class="s0" d="m283.3 17.9v2c0 9.6 0 19.2 0 28.8 0 1.5-0.3 2.3-2 2.4-4.2 0.3-4.1 0.4-4.1-3.7 0-8.8 0-17.6-0.1-26.4 0-1.7 0.3-2.5 2.2-2.5 1.3 0 2.5-0.4 4-0.6z"></path><path class="s0" d="m280.2 15q-0.7-0.8-1.3-1.6c-2.6-3.4-2.5-3.4 0.1-6.8 1.2-1.5 1.9-1.5 3 0.1 2.4 3.4 2.5 3.4-0.3 6.8-0.4 0.5-0.7 1.2-1.5 1.5z"></path><path fill-rule="evenodd" class="s0" d="m233.8 7c4.4-0.6 4.4-0.7 4.4 3.8 0 12.6-0.1 25.2-0.1 37.8 0 1.4 0 2.3-1.8 2.5-4.1 0.4-4.1 0.5-4.1-3.7 0-0.2 0-0.4-0.1-1-3.7 3.8-7.9 5.5-13 4.9-5.1-0.6-8.8-3.3-11.6-7.4-4.7-7-3.2-17.7 3.3-23 6.3-5.2 15.2-5.1 21.1 0.8 0-4.4 0.1-8.3 0-12.3-0.1-1.4 0.3-2.1 1.9-2.3zm-12.8 38.4c6.4 0 11.6-4.8 11.6-10.7 0-6.4-5.1-11.6-11.3-11.6-6.1 0-10.3 4.4-10.3 10.8-0.1 6.6 4.2 11.4 10 11.5z"></path><path fill-rule="evenodd" class="s0" d="m160.7 34.5c0 9.4-7.7 17.2-17.1 17.3-9.4 0-17.1-7.8-17.1-17.5 0-9.5 7.5-17.3 16.7-17.3 10.1 0.1 17.5 7.5 17.5 17.5zm-6.3 0.2c0-6.6-4.6-11.4-11-11.4-5.9 0-10.6 4.9-10.6 11.1 0 6.4 4.5 11.1 10.7 11.1 5.9 0.1 10.8-4.8 10.9-10.8z"></path><path fill-rule="evenodd" class="s0" d="m183.2 17.1c10-0.2 17.7 7.3 17.7 17.2 0.1 9.5-7.7 17.4-17.1 17.5-9.3 0-17.2-7.9-17.2-17.3-0.1-9.5 7.4-17.3 16.6-17.5zm11.3 17.7c0-6.5-4.6-11.4-10.9-11.4-5.8-0.1-10.7 4.9-10.8 10.9 0 6.4 4.6 11.2 10.8 11.3 5.9 0 10.9-4.9 10.9-10.8z"></path></svg>