<svg xmlns="http://www.w3.org/2000/svg" viewBox="0 0 387 88" width="387" height="88"><title>trustpilot-svg</title><style>		.s0 { fill: #ffffff } 		.s1 { fill: #dcdcdc } 	</style><path class="s0" d="m65.3 61.7q1.7 5.2 3.4 10.5 2.3 7.3 4.8 14.6c0 0.1 0.1 0.3 0 0.5-0.5-0.1-0.8-0.4-1.1-0.7q-9.5-6.8-18.9-13.7-3.9-2.8-7.7-5.6-0.8-0.6-1.6 0-13.3 9.7-26.7 19.4c-0.3 0.2-0.5 0.5-0.9 0.6-0.2-0.4 0.1-0.7 0.2-1q5.1-15.7 10.2-31.4 0-0.1 0.1-0.3c0.3-0.5 0.1-0.8-0.4-1.2-2.2-1.6-4.4-3.2-6.7-4.8q-10.1-7.4-20.2-14.7c-0.3-0.2-0.6-0.4-0.8-0.7 0.3-0.2 0.6-0.1 0.8-0.1q16.8 0 33.6 0.1c0.8 0 0.8 0 1-0.9q5.1-15.6 10.2-31.2 0.3-0.7 0.5-1.4c0.3 0.1 0.3 0.4 0.4 0.6q5 15.8 10.1 31.5c0.4 1.4 0.4 1.4 1.8 1.4q15.5 0 31 0c0.9 0 1.8 0 2.8 0-0.1 0.4-0.4 0.5-0.6 0.7q-9.7 7-19.5 14-3.7 2.6-7.5 5.3c-0.3 0.2-0.6 0.5-0.8 0.8 0 0.3-0.3 0.5-0.5 0.7-5.4 3.8-10.7 7.7-16.1 11.5 0.1 0.1 0.1 0 0.2 0 2.6-0.9 5.3-1.4 8-2.1 3.1-0.9 6.3-1.7 9.5-2.4 0.4-0.1 0.9-0.4 1.4-0.1z"></path><path class="s0" d="m116 61q0-9.7 0-19.4 0-0.3 0-0.7c0-0.3-0.2-0.4-0.5-0.4q-0.4 0-0.8 0-6.5 0-12.9 0-0.4 0-0.7 0-0.6 0-0.5-0.5 0-3.2 0-6.3c0-0.4 0.2-0.5 0.5-0.5q0.3 0 0.7 0 18.3 0 36.7 0 0.3 0 0.5 0c0.8 0 0.8 0 0.8 0.8q0 2.9 0 5.8c0 0.9 0 0.8-0.8 0.8q-6.1 0-12.2 0c-0.6 0-1.2 0.1-1.8 0-0.5 0-0.6 0.2-0.6 0.7q0 0.4 0 0.8 0 19.3 0 38.6c0 1.2 0.2 1.1-1.1 1.1q-3.3 0-6.5 0c-1 0-0.8 0.1-0.8-0.9q0-9.9 0-19.8z"></path><path class="s0" d="m229.9 56.2c-0.2 0.1-0.5 0.1-0.7 0.1q-3.3 0-6.6 0c-0.6 0-0.9-0.1-1-0.7-0.4-1.8-1.6-2.9-3.4-3.4-2.5-0.8-5.1-0.7-7.6 0.1-0.5 0.1-0.9 0.4-1.3 0.7-1.3 1.1-1.5 2.9-0.3 4.1 0.9 0.9 2 1.5 3.2 1.9 2.4 0.8 4.9 1.3 7.4 1.8q2.7 0.6 5.3 1.7c1.2 0.5 2.3 1.1 3.2 2 2.4 2.1 3.2 4.8 2.8 7.8-0.4 3.8-2.7 6.3-5.9 8-2.2 1.2-4.7 1.8-7.2 2-3.1 0.3-6.2 0.1-9.2-0.7q-4.6-1.3-7.3-5.2c-1.2-1.7-1.6-3.6-1.7-5.6 0-0.4 0.1-0.6 0.6-0.6q3.4 0.1 6.9 0.1c0.4 0 0.5 0.1 0.6 0.6 0 0.3 0.1 0.6 0.2 0.9 0.5 1.9 1.7 3.3 3.6 4 2.3 0.9 4.7 0.9 7.1 0.5 1-0.2 2-0.5 2.9-1 2-1.1 2.6-4.6 0.2-6.2-1.7-1.1-3.6-1.6-5.5-2-2.8-0.7-5.6-1.2-8.2-2.1-0.9-0.3-1.8-0.7-2.7-1.1-3-1.7-4.5-4.2-4.6-7.6-0.2-3.9 1.3-6.7 5.2-8.8 1.9-1 4-1.5 6.1-1.7 3.1-0.4 6.2-0.3 9.2 0.6 3.9 1.1 6.9 3.4 8.3 7.4 0.2 0.8 0.4 1.6 0.4 2.4z"></path><path class="s0" d="m186.7 77.1c-0.2-0.1-0.3 0.1-0.3 0.2-2.6 3.8-6.2 5.5-10.8 5.4-1.4 0-2.8-0.2-4.2-0.6-3-0.8-5.1-2.6-6.4-5.5-0.7-1.5-1.1-3.2-1.2-4.9q-0.2-1.8-0.2-3.7 0-10.2 0-20.3c0-1.3-0.1-1.2 1.2-1.2q2.8 0 5.6 0c1.1 0 1 0 1 1q0 10.1 0 20.3c0 1.1 0 2.2 0.2 3.2 0.6 3.3 2.3 5.1 5.6 5.5 3 0.3 5.7-0.4 7.7-2.8 0.7-0.9 1.1-1.8 1.4-2.9 0.3-1.3 0.5-2.6 0.5-4q-0.1-9.4 0-18.8c0-0.3 0-0.5 0-0.8-0.1-0.4 0.1-0.6 0.5-0.6q1.1 0 2.3 0 2 0 4 0c0.8 0 0.8 0 0.8 0.9q0 0.3 0 0.6 0 16.3 0 32.5 0 0.2 0 0.4c0.1 0.5-0.1 0.7-0.6 0.7q-3.2-0.1-6.4 0c-0.6 0-0.7-0.3-0.7-0.8q0.1-1.6 0-3.2c0-0.2 0.1-0.4 0-0.6z"></path><path class="s0" d="m253.7 75.5q0.1 0.2 0.1 0.4 0 2.5 0 5c0 0.4-0.1 0.6-0.6 0.7-2.6 0.3-5.2 0.5-7.9 0.2q-1.3-0.3-2.6-0.7c-1.6-0.7-2.6-1.9-3.2-3.5-0.5-1.3-0.7-2.8-0.7-4.2q0-5.1 0-10.3 0-4.9 0-9.9c0-0.8 0-0.8-0.8-0.8q-2.2 0-4.4 0c-0.4 0-0.7-0.1-0.7-0.7q0.1-2.3 0.2-4.6c0-0.5 0.2-0.6 0.6-0.6q2.2 0 4.3 0c1 0 1 0 1-1q0-4.3 0-8.7c0-0.9 0-0.9 0.9-0.9q2.9 0 5.9 0c0.9 0 0.9 0 0.9 0.9q0 4.3 0 8.5 0 0.3 0 0.7 0 0.5 0.5 0.5 0.3 0 0.6 0c1.7 0 3.5 0 5.2 0 0.5 0 0.6 0.1 0.6 0.6q0 2.2 0 4.5c0 0.5-0.1 0.6-0.6 0.6q-2.8 0-5.5 0c-0.8 0-0.8 0-0.8 0.8q0 9.4 0 18.7c0 0.8 0.1 1.7 0.4 2.4 0.3 0.8 0.8 1.3 1.6 1.5 1.7 0.3 3.3 0.2 5 0z"></path><path class="s0" d="m386.6 75.5c0 1.9 0 3.7 0 5.5 0 0.4-0.1 0.5-0.5 0.6-2.7 0.3-5.4 0.6-8 0.1-1.9-0.3-3.7-0.9-4.9-2.5-1-1.4-1.3-3-1.5-4.6-0.1-0.8 0-1.7 0-2.5q0-9.2 0-18.5-0.1-0.3 0-0.7c0-0.4-0.2-0.5-0.6-0.5q-2.1 0-4.2 0-0.4 0-0.7 0c-0.4 0-0.5-0.2-0.4-0.5q0-2.5 0.1-4.9c0-0.5 0.3-0.5 0.6-0.5q2.1 0 4.2 0c1.2 0 1.1 0.1 1.1-1.2q0-4.2 0-8.5c0-0.8 0-0.9 0.9-0.9q2.9 0 5.9 0c0.9 0 0.9 0 0.9 1q0 4.4 0 8.7c0 0.9 0 0.9 0.9 0.9q2.7 0 5.3 0c0.7 0 0.7 0 0.7 0.7 0 1.5 0 2.9 0 4.4 0 0.5-0.1 0.6-0.6 0.6q-2.7 0-5.5 0c-0.8 0-0.8 0-0.8 0.8q0 9.4 0 18.8c0 0.9 0.1 1.7 0.5 2.4 0.3 0.8 0.8 1.2 1.5 1.4 1.5 0.2 3.1 0.3 4.6 0 0.1 0 0.2 0 0.5-0.1z"></path><path class="s0" d="m322.1 57.5q0 11.5 0 23 0 0.2 0 0.4c0 0.7 0 0.8-0.7 0.8q-3.1-0.1-6.3 0c-0.6 0-0.7-0.2-0.7-0.8q0.1-0.2 0-0.5 0-23 0-46c0-1.4-0.1-1.2 1.3-1.2q2.8 0 5.5 0c0.9 0 0.9 0 0.9 1q0 10.8 0 21.7 0 0.8 0 1.6z"></path><path class="s0" d="m145.4 53.2c0.4-0.4 0.4-0.7 0.6-1 1.5-3.6 6.5-6.9 10.3-6.6 0.6 0 1.2-0.1 1.8 0 0.4 0.1 0.6 0.3 0.6 0.8-0.1 1.7 0 3.4 0 5.1q0 0.7 0 1.5c-0.9 0.1-1.7-0.2-2.5-0.2-3.8-0.3-6.6 1.2-8.5 4.4-1.5 2.4-1.9 5-1.9 7.7q0 7.7 0 15.3c0 1.3 0.2 1.1-1.1 1.2q-2.9 0-5.7 0c-0.8 0-0.8-0.1-0.8-0.9q0-9.7 0-19.3 0-6.9 0-13.8c0-0.9 0-0.9 0.9-0.9q2.7 0 5.4 0c1 0 0.9 0.1 0.9 0.9 0 1.9 0 3.7 0 5.8z"></path><path class="s0" d="m299.8 64.2q0-8.2 0-16.3 0-0.2 0-0.4c0-1.1-0.1-1 1-1q2.9 0 5.8 0c1.1 0 0.9 0.1 0.9 1q0 10.7 0 21.4 0 5.9 0 11.9c0 0.9 0 0.9-0.9 0.9q-3 0-6 0c-0.8 0-0.8 0-0.8-0.9q0-8.3 0-16.6z"></path><path class="s1" d="m45.9 66.2q5.8-4.2 11.6-8.4 2.6-1.9 5.3-3.8c0.2 0 0.3 0.2 0.3 0.4q1.1 3.4 2.2 6.7 0 0.3 0 0.5-4.5 1.1-8.8 2.2-5.2 1.3-10.4 2.6c-0.3 0.1-0.3 0-0.2-0.2z"></path><path class="s0" d="m303.7 40.6q-1.6 0-3.2 0c-0.5 0-0.7-0.1-0.7-0.6q0-3.1 0-6.1c0-0.6 0.2-0.7 0.7-0.7q3.2 0 6.3 0c0.6 0 0.8 0.1 0.8 0.7q-0.1 3 0 6.1c0 0.5-0.3 0.6-0.7 0.6q-1.6 0-3.2 0z"></path><path class="s0" d="m45.9 66.2q0.1 0.1 0.2 0.2c-0.2 0.2-0.4 0.3-0.5 0.1-0.1-0.1 0.1-0.2 0.3-0.3z"></path><path fill-rule="evenodd" class="s0" d="m294 66c-0.1 2.7-0.7 5.3-1.8 7.8-1.5 3.6-4 6.3-7.7 7.8-2.2 1-4.6 1.1-7 0.9-1.4-0.1-2.9-0.4-4.3-0.9-2.4-0.9-4.4-2.5-6.2-4.5 0 5.1 0 11.1 0 16.1q0 0.4 0 0.7c0.1 0.4-0.1 0.6-0.5 0.6q-3.3 0-6.6 0c-0.4 0-0.6-0.1-0.5-0.5q0-0.4 0-0.7 0-22.8 0-45.7c0-1.2-0.2-1.1 1.1-1.1q2.6 0 5.2 0c0.9 0 0.9 0 0.9 0.9q0 1.9 0 3.7c0.2 0.1 0.3 0 0.3-0.2 1.6-2.8 4.2-4.3 7.2-4.9 3.8-0.8 7.5-0.5 11.1 1.2 3.2 1.6 5.4 4.1 6.9 7.3 1.7 3.6 2.2 7.5 1.9 11.5zm-10.1-10.3c-1.5-2.3-3.6-3.6-6.3-3.9-5.2-0.4-8.3 1.7-9.9 6.1-0.7 2-1 4.1-0.9 6.3-0.1 2.3 0.2 4.7 1.3 6.9 1.5 3 3.8 5 7.3 5.4 3.9 0.4 7-1 9.1-4.5 1.1-2 1.5-4.1 1.7-6.3 0.2-3.5-0.3-6.9-2.3-10z"></path><path fill-rule="evenodd" class="s0" d="m362.8 71.1c-2 6-6.1 9.7-12.2 11-3.4 0.8-6.8 0.7-10.2-0.2-6.1-1.8-9.9-5.9-11.5-12.1-0.5-1.8-0.7-3.7-0.7-5.7 0-2.7 0.4-5.3 1.4-7.8 1.8-4.9 5.2-8.2 10.2-9.7 4-1.2 7.9-1.2 11.9-0.1 5.8 1.6 9.6 5.5 11.3 11.4 1.2 4.4 1.2 8.8-0.3 13.2zm-8.8 1.2c1.7-2.7 2.2-5.7 2.2-8.7q0-2.4-0.8-4.6c-1.1-3.8-4.1-6.8-8.1-7.2-3.3-0.3-6 0.6-8.2 3.1-1.3 1.5-2.1 3.2-2.6 5.1-0.7 3-0.7 6 0.2 9 1.1 3.9 3.9 7 8.2 7.5 3.9 0.4 7-1 9.1-4.2z"></path></svg>