<svg xmlns="http://www.w3.org/2000/svg" viewBox="0 0 389 107" width="389" height="107"><title>upcity-svg</title><style>		.s0 { fill: #ffffff } 	</style><path class="s0" d="m48.2 43.8c3.7 15 12.3 27.5 20.8 40 2.7 4.1 5.7 7.8 8.5 11.8 1.5 2.2 3.2 2 4.4 0.2 9.6-13.3 19.2-26.5 25.9-41.5 1.6-3.8 2.5-7.8 3.6-11.7 1.3-0.2 0.1-1.4 0.7-1.9q-0.5 0.1-0.7 0.5c-1.3-6.8-2.7-13.4-7.1-19.1-4.8-6.2-11.1-9.6-18.6-11.3-0.6-0.1-1.2-0.5-1.7-0.7-2.5-1.1-5-1-7.5-0.1-0.7 0.6-1.6 1.1-2.5 0.3-2.4-2.1-4.6-4.3-7.2-6.7 3.4-1.1 6.3-2.4 9.6-2.1q3.3 1 6.6 0c9 0.6 16.3 4.3 23 10.4 8.7 7.8 12.6 17.2 13.5 28.3 0.5 6.3-1.5 12-4 17.6-7.3 16.5-17.3 31.3-28.9 45.1-3.7 4.3-9.2 4.6-13.1 0.5-7.8-8.1-13.8-17.6-19.8-27.1-6.2-10-12.3-20.2-13.7-32.2-0.9-8.3 1.4-16.1 5.6-23.3 1.6-2.8 3.7-2.7 6.3-1.1 2.6 1.6 2.8 3.2 1.2 5.6-2.9 4.2-3.9 9.1-5 14-1.1 1.5-0.8 3 0.1 4.4z"></path><path class="s0" d="m0.6 36.3c0.6-16.8 18.8-34.8 36-34.7q3.3 0.9 6.6 0c10.2 0.6 18.1 5.4 25 12.6 18.4 19.2 10.9 40.6 0.2 56.8-4.3-4.2-5.1-8.2-2-14.3 8.1-15.6 5.3-28.4-7.3-39.6-4.5-4-10.3-5.5-16-7.1-2.5-1-4.9-0.9-7.4 0.1-5 1.7-10 3-14.5 6.2-6.9 5-10.2 11.8-12.1 19.7-0.2 0.8-0.5 1.5-0.7 2.2-1.1 1.8-1.1 3.6-0.1 5.4 4.9 18.4 15.7 33.6 26.7 48.7q0.8 1.1 1.6 2.3c2.4 3.4 3.6 3.5 6.1 0.1 2.2-2.9 4.4-5.9 6.5-8.9 1.2-1.9 2-1.9 3.3 0 2.6 3.5 4 6.8-0.3 10.1-0.9 0.7-1.3 2.1-2 3.1-6.7 9.4-12.9 10.1-19.8 1.2-10.9-14.1-21.2-28.6-27.6-45.4-1.3-3.2-2.5-6.5-2.3-10 0.1-2.9 0.3-5.7 0.1-8.5z"></path><path class="s0" d="m144.5 69.2c2.4 12.7 15.2 18.3 26 11 3.8-2.6 4.7-7.3 4.7-11.7 0.1-10.4 0.1-20.7 0.1-31.1 0-1.6-0.4-3.4 0.6-5 1 5.4 0.3 10.8 0.4 16.3 0.2 7.3 0.1 14.6 0.1 22 0-11.4 0-22.8 0-34.2 0-1.7-0.4-3.4 0.4-5 2.2-1.3 4.4-2.7 5.8 0.9 1 8.7 0.1 17.4 0.4 26.1 0.2 4.2-0.5 8.4 0.4 12.6 0.6 9.7-10 19.4-18.9 18.7-3.4-0.7-6.9-0.6-10.4 0-8.7-0.2-17.2-7.4-17.7-18.3-0.5-12.6-0.3-25.3-0.3-37.9 0-1.6 0.4-2.7 2.5-3.2 2.8-0.7 4.6-0.5 5.8 2.2-0.3 12.2-0.5 24.4 0.1 36.5z"></path><path class="s0" d="m275.1 83.1c3.8 0.1 7.2-1.5 10.6-2.9 2.6-1 4.7-0.8 5.9 1.7 1.2 2.8-1 4.4-3.1 5.3-4.1 1.9-8.5 3.1-13.1 2.7-3.1-0.9-6.3-0.7-9.4-0.1-12.1-0.7-22.5-11.8-22.7-24.4 0.6-3.8 0.7-7.5 0-11.2-0.1-10.9 9.5-23.4 21.7-24.3 3.8 0.5 7.5 0.4 11.3 0 7.5 1.2 12.9 5.1 15.6 12.2 0.8 2.3 1.3 4.9-1.5 6.1-2.9 1.3-4.6-0.3-5.7-3.1-2.2-5.5-6.9-7.8-12.4-8.7-0.1 0.7 0-0.9 0.3-0.3 0 0 0.6-0.1 0.5-0.5-2 0.5-4.4-0.3-6.2 1.3-9.8 2.5-14.5 8-15.3 18.1-0.6 7.8-0.2 15.6 5.5 21.9 4.2 4.7 10.1 5.3 15.8 6.3 0.3-0.6-0.2 1-0.3 0.3-0.1-0.6-0.9-0.4-0.4 0 0.9 0.7 1.9 0.2 2.8 0.2 0.6 0.1 0.9-0.4 0.3-0.2 0 0-0.1-0.2-0.2-0.3z"></path><path class="s0" d="m358.7 98.3c6.7-3.1 8.3-7.3 5.3-14q-6.3-14.3-12.6-28.7c-1.1-2.5-2.4-5.4 1-6.8 3.5-1.5 5.2 1.1 6.3 3.8 3.7 8.6 7.3 17.2 11.3 26.8 3.4-8.3 6.4-15.7 9.5-23.2q0.8-2.1 1.7-4.3c1-2.5 2.8-4.3 5.4-3.2 2.6 1.1 3 3.4 1.7 6.2-4.9 11-9.6 22-14.3 33.1-2.1 4.8-3.3 10-7.6 13.8-3.9 3.4-8.2 3.4-12.8 2.9-1.2-0.1-2.5-0.7-2.5-2.3-0.1-1.8-0.4-3.6 2-4 1.9 0.6 3.8 0.8 5.6-0.1z"></path><path class="s0" d="m325.6 49.3q0.4-0.4 0.8-0.8c1.2-2.8 0.8-5.6 0.2-8.4q-0.2-0.8 0.6-1.1c1.6-0.7 3.2-1.2 4.9-0.3 2 1.4 1.4 3.6 1.6 5.5 0.2 1.7-0.8 3.6 0.8 5.1l-0.3 0.1v-0.3c3.2 2.2 7.1-0.4 10.3 1.5 1.7 1 1.5 2.3 0.3 3.6-3.2 0.7-6.3 0.3-8.7 0.3 1.9 0.9 5-0.7 7.7 0.6-3 1.8-6.4 0.4-9.5 0.9q-1.5 12.2 0 24.4c1.2 0.7 0.6 3 2.7 2.7 2.4 1.5 5.2 0 7.6 1.2 2.1 4.1-0.2 5.2-3.8 5.4-2.5-0.6-5-0.5-7.6 0-4-0.8-6.2-3.3-6.5-7.4 0.9-8.4 0.2-16.9 0.3-25.3 0-0.6-0.5-0.7-0.9-0.9-1.2-0.1-2.5-0.1-3.7-0.2-1.7-0.1-3.2-0.7-3.5-2.4-0.4-1.7-0.4-3.5 2-4 1.6 0.5 3.2 0.8 4.7-0.2z"></path><path class="s0" d="m310.4 87c-1 2.8-3.4 2.6-5.6 2.8-0.8-1.2-1.5-2.4-1.5-3.9 0.1-11.8 0-23.6 0.1-35.5 0-0.2 0.3-0.5 0.5-0.8 3-2.7 4.8-0.7 6.4 1.8-0.5 11.9-0.6 23.8 0.1 35.7z"></path><path class="s0" d="m195.8 49.5c0 16.1 0 32.2 0 48.3 0 2.4 0.2 4.7 0.9 6.9-2.5-0.7-2.6-2.8-2.6-4.8q0-23.2 0-46.5c0-1.5 0-3.1 1.7-4z"></path><path class="s0" d="m302.9 33.3c1.7-3.5 4.3-3.7 7.2-1.7 2.9 2 2.9 6.1 0.1 8.5-2.7 2.4-5.3 2.1-7.3-1-0.7-1.9-0.7-3.8 0-5.7z"></path><path class="s0" d="m303.9 49.6c0 11.4 0 22.8-0.1 34.2 0 2.1 0.5 4 1 6-2.2-0.6-2.3-2.5-2.3-4.2q0-16.3 0-32.7c0-1.2 0-2.6 1.4-3.3z"></path><path class="s0" d="m176.8 31.5v38.4q-0.5 0-1 0v-37.5q0.5-0.5 1-0.9z"></path><path class="s0" d="m183.4 71.1c-1.4-1.3-0.8-3-0.8-4.5-0.1-11.4 0-22.8 0-34.2 0.9 0.3 1.2 0.9 1.2 1.8-0.2 12.3 0.5 24.6-0.4 36.9z"></path><path class="s0" d="m144.5 69.2c-1.3-1.3-0.8-3-0.8-4.5q-0.1-13.8 0-27.6c0-1.5-0.5-3.1 0.7-4.5q0.1 18.3 0.1 36.6z"></path><path class="s0" d="m310.4 87c-1.3-1.1-0.9-2.6-0.9-3.9q0-13.9 0-27.8c0-1.3-0.4-2.8 0.8-3.9 0.5 11.9 0.4 23.7 0.1 35.6z"></path><path class="s0" d="m326.1 56.1c0.4 0.3 1.1 0.6 1.1 0.9 0.2 8.4 1.2 16.9-0.6 25.3-1-8.7-0.1-17.4-0.5-26.2z"></path><path class="s0" d="m334.3 80.5c-2.3-5.1-0.8-10.4-1-15.5-0.1-2.9-1.2-6.2 1-8.9q0 12.2 0 24.4z"></path><path class="s0" d="m220.4 49.5c-3.2 1.3-6.3 1.5-9.5-0.1 3.2-1.5 6.4-1.1 9.5 0.1z"></path><path class="s0" d="m0.6 36.3c1.5 2.8 1.6 5.7-0.1 8.5-1-2.9-1.2-5.7 0.1-8.5z"></path><path class="s0" d="m334.5 49.3c-2.3-1.3-1.1-3.5-1.3-5.3-0.1-1.7 0-3.4-0.9-4.9q0.4-0.6 1 0c2.2 3.2 0.2 6.9 1.2 10.2z"></path><path class="s0" d="m276.3 29.9c-3.8 1.1-7.5 1.2-11.3 0 3.8-0.6 7.6-0.6 11.3 0z"></path><path class="s0" d="m344.5 50.6c-3.4-0.9-7.2 1.1-10.3-1.5 3.4 1 7.2-1.3 10.3 1.5z"></path><path class="s0" d="m243.3 54.2c1.4 3.7 1.3 7.4 0 11.2-0.8-3.7-0.9-7.5-0.1-11.2z"></path><path class="s0" d="m343.8 55.2q-4.3 0-8.7 0 0-0.5 0-1h9.7q-0.5 0.5-1 1z"></path><path class="s0" d="m266.9 36.9c1.6-3 4.3-1.1 6.5-1.4 0.1 0.8-0.7 0.7-1.1 0.9q-2.7 0.2-5.4 0.5z"></path><path class="s0" d="m333.3 39.1q-0.5 0-1 0-2.6-0.1-5.1-0.1c2.1-2.3 4.1-2.4 6.1 0.1z"></path><path class="s0" d="m35.7 10.1c2.3-2.1 5-0.9 7.5-0.8 0 0 0.1 0.2 0.1 0.3 0 0.2-0.1 0.3-0.2 0.4q-3.7 0.1-7.4 0.1z"></path><path class="s0" d="m76.5 10c2.5-1.6 5-1.5 7.5 0.1q-3.8-0.1-7.5-0.1z"></path><path class="s0" d="m326.6 40c1.3 2.9 1.7 5.7-0.2 8.5-0.2-2.9-0.6-5.7 0.2-8.5z"></path><path class="s0" d="m232.7 72.9q-2.1-3.7 0-7.4 0.7 3.7 0 7.4z"></path><path class="s0" d="m8.3 43.7c-1.9-1.9-1.5-3.7 0.1-5.5q-0.1 2.7-0.1 5.5z"></path><path class="s0" d="m83 1.5q-3.3 2.1-6.6 0 3.3 0 6.6 0z"></path><path class="s0" d="m43.2 1.5q-3.3 2.1-6.6 0 3.3 0 6.6 0z"></path><path class="s0" d="m111.4 41.2q0.1-0.9 0.2-1.9 0.4 0 0.7-0.1c0 1.5 0.1 2.9 0 4.4 0 0.6-0.5 0.7-0.4 0.1 0.1-0.3-0.3-0.7-0.5-1q0-0.8 0-1.5z"></path><path class="s0" d="m302.9 33.3q0 2.9 0 5.8c-1.8-1.9-1.9-3.8 0-5.8z"></path><path class="s0" d="m48.2 43.8c-1.8-1.3-1.2-3.1-0.8-4.7 0-0.1 0.2-0.1 0.4-0.1 0.1 0.1 0.2 0.2 0.3 0.3q0.1 2.2 0.1 4.5z"></path><path class="s0" d="m325.6 49.3c-1.5 1.6-3.1 1.5-4.7 0.2q2.4-0.1 4.7-0.2z"></path><path class="s0" d="m250.2 61.5c-0.3-2-0.8-3.8 0.2-5.8 0.5 2.2 0.6 4.1-0.2 5.8z"></path><path fill-rule="evenodd" class="s0" d="m232.6 65.5q-0.9 3.7 0 7.4c-0.8 9.6-6.4 15.5-16 16.9-3.7-0.7-7.5-0.5-11.3-0.2-1.6-0.4-3-0.7-2.9 1.9 0.2 2.8 0.1 5.6 0.1 8.4 0 3.9-1.5 5.9-5.8 4.8-1.5-1.8-1.9-3.8-1.9-6.1 0.1-14.7 0-29.4 0.1-44.1 0-1.7 0.1-3.5 0.9-5 3.8-1.2 4.5-0.6 6.3 5.1 2.8-2.1 4.8-5.5 8.8-5.2 3.2 0.1 6.4 0.1 9.5 0.1 7.8 1.9 12 7.4 12.3 16zm-7.7 6.2c1.1-1.3 1-2.8 0.1-4.2-1-6.2-3.4-11.3-10.6-12.3-1.3-1.2-2.4-0.5-3.5 0.4-4.9 1.3-8.3 4.1-8.5 9.6-0.1 4.8-0.1 9.6-0.1 14.5 0 1.1-0.2 2.3 1.7 2.8 4.4 1.2 8.8 1.6 13.3 0 5.2-1.8 6.5-6.2 7.6-10.7z"></path><path class="s0" d="m214.5 55.2q-1.8 0.2-3.5 0.4c1-2.4 3-1.3 4.6-1.1 0.2 0-0.7 0.5-1.1 0.7z"></path></svg>